<svg width="1024" height="1024" viewBox="0 0 1024 1024" fill="none" xmlns="http://www.w3.org/2000/svg">
<rect width="1024" height="1024" rx="256" fill="white"/>
<g clip-path="url(#clip0_4154_892)">
<path d="M1030.36 475.928C1058.29 491.871 1058.28 532.129 1030.36 548.072L210.672 1016.12C182.98 1031.93 148.536 1011.94 148.536 980.048L148.536 43.9512C148.536 12.0629 182.98 -7.93291 210.672 7.87929L1030.36 475.928Z" fill="black"/>
<path d="M780.555 475.863C808.627 491.776 808.627 532.223 780.555 548.136L335.173 800.602C307.482 816.299 273.15 796.296 273.15 764.465L273.15 259.533C273.15 227.702 307.482 207.7 335.173 223.396L780.555 475.863Z" fill="white"/>
<path d="M656.517 499.912C665.974 505.196 665.974 518.803 656.517 524.087L376.827 680.357C367.598 685.513 356.228 678.841 356.228 668.269L356.228 355.729C356.228 345.157 367.598 338.485 376.827 343.642L656.517 499.912Z" fill="black"/>
</g>
<defs>
<clipPath id="clip0_4154_892">
<rect width="720" height="720" fill="white" transform="translate(152 152)"/>
</clipPath>
</defs>
</svg>
