<svg width="40" height="40" viewBox="0 0 40 40" fill="none" xmlns="http://www.w3.org/2000/svg">
<g clip-path="url(#clip0_2593_24)">
<path d="M28.0025 0H11.9975L0 11.9975V28.0025L11.9975 40H28.0025L40 28.0025V11.9975L28.0025 0Z" fill="white"/>
<path d="M20 15.8125L15.8125 20L20 24.1875L24.1875 20L20 15.8125Z" fill="white"/>
<path d="M26.402 4H13.598L4 13.598V26.402L13.598 36H26.402L36 26.402V13.598L26.402 4ZM33.956 21.746L21.744 33.958C21.2812 34.4208 20.6535 34.6807 19.999 34.6807C19.3445 34.6807 18.7168 34.4208 18.254 33.958L6.044 21.746C5.58125 21.2832 5.32128 20.6555 5.32128 20.001C5.32128 19.3465 5.58125 18.7188 6.044 18.256L18.254 6.044C18.7168 5.58125 19.3445 5.32128 19.999 5.32128C20.6535 5.32128 21.2812 5.58125 21.744 6.044L33.956 18.256C34.4188 18.7188 34.6787 19.3465 34.6787 20.001C34.6787 20.6555 34.4188 21.2832 33.956 21.746Z" fill="black"/>
<path d="M20 16.65L16.65 20L20 23.35L23.35 20L20 16.65Z" fill="black"/>
</g>
<defs>
<clipPath id="clip0_2593_24">
<rect width="40" height="40" fill="white"/>
</clipPath>
</defs>
</svg>
